HIERARCHY
ROOT Hips
{
  OFFSET 0 0 0
  CHANNELS 6 Xposition Yposition Zposition Zrotation Yrotation Xrotation
  JOINT LeftThigh
  {
    OFFSET 8.409438 0 -5.917753
    CHANNELS 3 Zrotation Yrotation Xrotation
    JOINT LeftLeg
    {
      OFFSET 0 0 -42.358652
      CHANNELS 3 Zrotation Yrotation Xrotation
      JOINT LeftFoot
      {
        OFFSET 0 0 -39.357303
        CHANNELS 3 Zrotation Yrotation Xrotation
      }
    }
  }
  JOINT RightThigh
  {
    OFFSET -8.409438 0 -5.917753
    CHANNELS 3 Zrotation Yrotation Xrotation
    JOINT RightLeg
    {
      OFFSET 0 0 -42.358652
      CHANNELS 3 Zrotation Yrotation Xrotation
      JOINT RightFoot
      {
        OFFSET 0 0 -39.357303
        CHANNELS 3 Zrotation Yrotation Xrotation
      }
    }
  }
  JOINT SpineLow
  {
    OFFSET 0 0 4.719101
    CHANNELS 3 Zrotation Yrotation Xrotation
    JOINT SpineMid
    {
      OFFSET 0 0 12.899191
      CHANNELS 3 Zrotation Yrotation Xrotation
      JOINT Chest
      {
        OFFSET 0 0 12.899191
        CHANNELS 3 Zrotation Yrotation Xrotation
        JOINT LeftShoulder
        {
          OFFSET 7.550562 1.41573 9.438202
          CHANNELS 3 Zrotation Yrotation Xrotation
          JOINT LeftArm
          {
            OFFSET 9.155056 0 4.247191
            CHANNELS 3 Zrotation Yrotation Xrotation
            JOINT LeftForearm
            {
              OFFSET 0 0 25.771955
              CHANNELS 3 Zrotation Yrotation Xrotation
              JOINT LeftHand
              {
                OFFSET 0 0 25.197169
                CHANNELS 3 Zrotation Yrotation Xrotation
              }
            }
          }
        }
        JOINT RightShoulder
        {
          OFFSET -7.550562 1.41573 9.438202
          CHANNELS 3 Zrotation Yrotation Xrotation
          JOINT RightArm
          {
            OFFSET -9.155056 0 4.247191
            CHANNELS 3 Zrotation Yrotation Xrotation
            JOINT RightForearm
            {
              OFFSET 0 0 -25.771955
              CHANNELS 3 Zrotation Yrotation Xrotation
              JOINT RightHand
              {
                OFFSET 0 0 -25.197169
                CHANNELS 3 Zrotation Yrotation Xrotation
              }
            }
          }
        }
        JOINT Neck
        {
          OFFSET 0 0 15.101124
          CHANNELS 3 Zrotation Yrotation Xrotation
          JOINT Head
          {
            OFFSET 0 0 11.325843
            CHANNELS 3 Zrotation Yrotation Xrotation
            End Site
            {
              OFFSET 0 0 14.157303
            }
          }
        }
      }
    }
  }
}
MOTION
Frames: 8
Frame Time: 0.0
0.0  93.25843  0.0  -3.391747  42.755411  -88.730365  1.630778  -18.455342  15.069149  -6.281179  -2.601103  15.622067  10.082703  4.189545  3.201579  -14.751539  -16.439357  -31.453498  8.560277  23.795428  44.241306  1.403428  5.357901  1.384628  -0.6701  -1.043745  -0.124214  -1.827329  -2.856156  -0.310741  -1.827329  -2.856156  -0.310741  -22.065057  24.468384  7.104911  118.450287  37.932041  -168.22834  -18.434599  5.19633  80.336512  41.470566  -29.88492  17.929277  8.048793  -14.266715  15.471804  23.143941  74.163642  -25.759055  -37.009429  -29.295128  -83.670474  53.771753  5.344392  -19.587227  -18.751838  0.695691  -0.199168  -14.063482  0.528474  -0.128159  
0.0  93.25843  0.0  -3.168209  42.957501  -88.204991  2.943154  -18.736481  15.17271  -6.402867  -2.040914  13.839142  9.782249  3.830072  3.171707  -14.404732  -16.323683  -33.080521  8.087405  24.425029  45.199363  1.675085  5.403034  1.259885  -0.519236  -0.984396  -0.064056  -1.417391  -2.691979  -0.154016  -1.417391  -2.691979  -0.154016  -22.645663  24.359024  6.726789  118.605443  38.186027  -168.220659  -19.508593  6.518366  79.70763  42.054871  -29.599853  18.192447  7.838369  -14.775106  15.298823  18.514481  74.385379  -30.051835  -37.321323  -28.958127  -83.355229  53.786445  5.224908  -19.692536  -19.39845  0.405226  -0.530744  -14.548439  0.32116  -0.385648  
0.0  93.25843  0.0  -2.826084  43.015645  -87.839517  4.207763  -19.255157  15.537207  -6.289589  -1.071035  12.590557  9.747355  3.400145  2.993272  -14.29232  -16.111095  -34.403738  7.750235  25.026522  46.085244  2.095713  5.359748  1.201139  -0.500917  -0.95838  0.024187  -1.370827  -2.619004  0.08601  -1.370827  -2.619004  0.08601  -22.374029  24.602457  6.380043  119.067684  38.540482  -167.957411  -20.085557  7.59237  79.045537  42.79545  -29.392042  18.08877  8.348557  -14.95502  15.405256  14.07753  74.512487  -34.200192  -37.500283  -28.929503  -83.086742  53.656743  5.128645  -19.753108  -19.498628  0.244183  -0.877183  -14.623636  0.211396  -0.650877  
0.0  93.25843  0.0  -2.332649  42.994246  -87.471449  5.587883  -19.163219  15.432652  -5.852684  -0.894329  11.876176  9.095431  3.188583  3.280694  -14.494212  -15.788624  -35.576147  7.783468  25.309096  47.004125  2.501422  5.260068  1.171712  -0.465194  -0.906945  0.096463  -1.275728  -2.477077  0.281233  -1.275728  -2.477077  0.281233  -22.206879  24.884202  6.30077  119.641303  38.92526  -167.634052  -20.602571  8.159711  78.293644  43.106662  -29.001873  17.887403  8.543007  -15.09972  15.735433  10.099759  74.320343  -37.99153  -37.421746  -29.199903  -82.909707  53.430577  5.01681  -19.897008  -19.6512  0.055985  -1.121569  -14.738355  0.07817  -0.840408  
0.0  93.25843  0.0  -1.768359  42.864841  -87.106099  7.122537  -18.349595  14.80114  -5.676984  -1.577784  12.317627  6.74934  3.108111  2.829481  -14.978309  -15.430437  -36.560274  8.168247  25.220884  47.877637  2.861574  5.129724  1.130222  -0.418823  -0.830873  0.194393  -1.151898  -2.267644  0.545926  -1.151898  -2.267644  0.545927  -22.169503  25.045833  6.2176  120.173361  39.350164  -167.451321  -21.094735  8.790497  77.554032  43.364058  -28.567818  17.540571  8.728586  -15.195446  15.88011  7.06764  73.731946  -40.883452  -36.619895  -30.192563  -82.871956  53.836004  5.362158  -19.842854  -19.802032  -0.250314  -1.377571  -14.852153  -0.143252  -1.042593  
0.0  93.25843  0.0  -1.269688  42.555352  -86.953883  8.229559  -17.399211  14.200742  -7.107965  -2.42069  13.560476  5.567756  4.05988  1.80895  -15.647107  -15.064658  -37.170303  8.72325  24.824915  48.537289  3.203661  4.974091  1.087294  -0.354673  -0.744434  0.319664  -0.979569  -2.030054  0.884924  -0.979569  -2.030054  0.884925  -22.234381  25.184645  6.148198  120.550545  39.750453  -167.550124  -21.824878  9.733391  76.699295  43.787633  -28.062874  17.39458  8.943599  -15.294061  15.973699  5.257348  72.962226  -42.555221  -36.190793  -30.605046  -82.963807  53.942521  5.308219  -19.928012  -19.927131  -0.595537  -1.598634  -14.94689  -0.394998  -1.219935  
0.0  93.25843  0.0  -0.832385  42.123829  -87.01814  8.279341  -16.977627  13.720161  -8.643974  -1.901982  14.271096  6.260292  4.579916  1.998378  -16.441829  -14.665743  -37.446702  9.246947  24.32979  48.993961  3.842054  4.939506  1.137985  -0.270958  -0.640646  0.460005  -0.752954  -1.745888  1.26481  -0.752954  -1.745888  1.26481  -22.318296  25.230469  6.312592  120.659253  40.163002  -167.769947  -22.818985  10.812123  75.743583  44.449608  -27.478726  17.491911  9.008138  -15.324543  16.088965  4.875296  72.061366  -42.995709  -35.949859  -30.65435  -83.039885  54.1195  5.268393  -19.927055  -20.074255  -0.9404  -1.716148  -15.058131  -0.649734  -1.319683  
0.0  93.25843  0.0  -0.318084  41.581242  -87.225735  7.879059  -16.719621  13.878462  -10.418739  -0.356156  14.295942  8.627183  4.246394  2.694592  -17.185369  -14.101964  -37.446287  9.545258  23.862853  49.275873  4.14428  4.784037  1.085518  -0.179824  -0.522915  0.602559  -0.504598  -1.424745  1.651148  -0.504598  -1.424745  1.651148  -22.282801  25.214548  6.728703  120.628493  40.553328  -167.878637  -23.766975  11.802373  74.752955  45.296358  -26.943852  17.653992  8.916971  -15.208525  16.258539  5.914777  71.207647  -42.2044  -36.005122  -30.397483  -83.040795  54.274958  5.271889  -19.896608  -20.182789  -1.194777  -1.698044  -15.139996  -0.84107  -1.314676  
